<svg viewBox="0 0 31 25" xmlns="http://www.w3.org/2000/svg"><path d="M22.463 9.608c.359 2.524-3.857 3.931-9.367 5.43-5.51 1.5-10.227 2.525-10.586 0-.358-2.524 1.931-10.465 7.441-11.965s12.154 4.01 12.512 6.535z"/><path d="M24.727 11.648c.213 1.5-3.197 5.306-10.543 7.313C6.84 20.966 1.12 19.966.905 18.468c-.213-1.5 5.535-.576 12.88-2.583 7.346-2.006 10.728-5.737 10.942-4.237z"/><path d="M30.798 6.618c0 3.02-5.964 6.988-7.485 6.988-1.522 0-.22-2.718-.22-5.739 0-3.02 1.234-5.469 2.755-5.469 1.522 0 4.95 1.2 4.95 4.22zM7.61 20.19c0 1.248-.85 3.848-1.658 3.848-.808 0-.853-1.317-.853-2.566 0-1.25.655-2.262 1.463-2.262s1.048-.27 1.048.98zm10.582-2.407c0 1.25-.85 3.849-1.658 3.849-.808 0-.853-1.317-.853-2.566 0-1.25.655-2.262 1.463-2.262s1.048-.27 1.048.98z"/><ellipse cx="28.652" cy="6.044" rx=".78" ry=".608"/></svg>