<?xml version="1.0" encoding="utf-8"?><svg viewBox="0 0 576 512" xmlns="http://www.w3.org/2000/svg" xmlns:xlink="http://www.w3.org/1999/xlink"><style>:root>svg{display:none}:root>svg:target{display:block}</style><svg aria-hidden="true" data-prefix="fas" data-icon="chevron-left" class="asvg-inline--fa afa-chevron-left afa-w-10" viewBox="0 0 320 512" id="chevron-left" xmlns="http://www.w3.org/2000/svg"><path d="M34.52 239.03L228.87 44.69c9.37-9.37 24.57-9.37 33.94 0l22.67 22.67c9.36 9.36 9.37 24.52.04 33.9L131.49 256l154.02 154.75c9.34 9.38 9.32 24.54-.04 33.9l-22.67 22.67c-9.37 9.37-24.57 9.37-33.94 0L34.52 272.97c-9.37-9.37-9.37-24.57 0-33.94z"/></svg><svg aria-hidden="true" data-prefix="fas" data-icon="fish" class="bsvg-inline--fa bfa-fish bfa-w-18" viewBox="0 0 576 512" id="fish" xmlns="http://www.w3.org/2000/svg"><path d="M327.1 96c-89.97 0-168.54 54.77-212.27 101.63L27.5 131.58c-12.13-9.18-30.24.6-27.14 14.66L24.54 256 .35 365.77c-3.1 14.06 15.01 23.83 27.14 14.66l87.33-66.05C158.55 361.23 237.13 416 327.1 416 464.56 416 576 288 576 256S464.56 96 327.1 96zm87.43 184c-13.25 0-24-10.75-24-24 0-13.26 10.75-24 24-24 13.26 0 24 10.74 24 24 0 13.25-10.75 24-24 24z"/></svg><svg viewBox="0 0 31 25" id="turtle" xmlns="http://www.w3.org/2000/svg"><path d="M22.463 9.608c.359 2.524-3.857 3.931-9.367 5.43-5.51 1.5-10.227 2.525-10.586 0-.358-2.524 1.931-10.465 7.441-11.965s12.154 4.01 12.512 6.535z"/><path d="M24.727 11.648c.213 1.5-3.197 5.306-10.543 7.313C6.84 20.966 1.12 19.966.905 18.468c-.213-1.5 5.535-.576 12.88-2.583 7.346-2.006 10.728-5.737 10.942-4.237z"/><path d="M30.798 6.618c0 3.02-5.964 6.988-7.485 6.988-1.522 0-.22-2.718-.22-5.739 0-3.02 1.234-5.469 2.755-5.469 1.522 0 4.95 1.2 4.95 4.22zM7.61 20.19c0 1.248-.85 3.848-1.658 3.848-.808 0-.853-1.317-.853-2.566 0-1.25.655-2.262 1.463-2.262s1.048-.27 1.048.98zM18.192 17.783c0 1.25-.85 3.849-1.658 3.849-.808 0-.853-1.317-.853-2.566 0-1.25.655-2.262 1.463-2.262s1.048-.27 1.048.98z"/><ellipse cx="28.652" cy="6.044" rx=".78" ry=".608"/></svg></svg>